<svg width="24" height="24" viewBox="0 0 24 24" fill="none" xmlns="http://www.w3.org/2000/svg">
<g id="check-circle">
<g id="shape">
<path d="M17.7071 9.70711C18.0976 9.31658 18.0976 8.68342 17.7071 8.29289C17.3166 7.90237 16.6834 7.90237 16.2929 8.29289L10 14.5858L7.70711 12.2929C7.31658 11.9024 6.68342 11.9024 6.29289 12.2929C5.90237 12.6834 5.90237 13.3166 6.29289 13.7071L9.29289 16.7071C9.68342 17.0976 10.3166 17.0976 10.7071 16.7071L17.7071 9.70711Z" fill="#9CA4AB"/>
<path fill-rule="evenodd" clip-rule="evenodd" d="M12 2C6.47715 2 2 6.47715 2 12C2 17.5228 6.47715 22 12 22C17.5228 22 22 17.5228 22 12C22 6.47715 17.5228 2 12 2ZM4 12C4 7.58172 7.58172 4 12 4C16.4183 4 20 7.58172 20 12C20 16.4183 16.4183 20 12 20C7.58172 20 4 16.4183 4 12Z" fill="#9CA4AB"/>
</g>
</g>
</svg>
