<svg width="24" height="24" viewBox="0 0 24 24" fill="none" xmlns="http://www.w3.org/2000/svg">
<g id="man">
<g id="shape">
<path d="M18 6C19.1046 6 20 5.10457 20 4C20 2.89543 19.1046 2 18 2C16.8954 2 16 2.89543 16 4C16 5.10457 16.8954 6 18 6Z" fill="#9CA4AB"/>
<path d="M12 6C11.8026 6 11.6096 6.05844 11.4453 6.16795L8.4453 8.16795C7.98577 8.4743 7.8616 9.09517 8.16795 9.5547C8.4743 10.0142 9.09517 10.1384 9.5547 9.83205L12.3028 8H14.0568L5.18627 20.4188C4.86526 20.8682 4.96935 21.4927 5.41876 21.8137C5.86817 22.1347 6.49272 22.0307 6.81373 21.5812L11.7766 14.6333L14.6436 17.1419L12.2 20.4C11.8686 20.8418 11.9582 21.4686 12.4 21.8C12.8418 22.1314 13.4686 22.0418 13.8 21.6L16.8 17.6C17.1139 17.1815 17.0522 16.5919 16.6585 16.2474L12.9447 12.9979L15.8484 8.93277L17.1056 11.4472C17.275 11.786 17.6212 12 18 12H21C21.5523 12 22 11.5523 22 11C22 10.4477 21.5523 10 21 10H18.618L16.8944 6.55279C16.725 6.214 16.3788 6 16 6H12Z" fill="#9CA4AB"/>
<path d="M5 11C4.44772 11 4 11.4477 4 12C4 12.5523 4.44772 13 5 13H8C8.55229 13 9 12.5523 9 12C9 11.4477 8.55229 11 8 11H5Z" fill="#9CA4AB"/>
<path d="M2 15C2 14.4477 2.44772 14 3 14H6C6.55229 14 7 14.4477 7 15C7 15.5523 6.55229 16 6 16H3C2.44772 16 2 15.5523 2 15Z" fill="#9CA4AB"/>
<path d="M1 17C0.447715 17 0 17.4477 0 18C0 18.5523 0.447715 19 1 19H4C4.55229 19 5 18.5523 5 18C5 17.4477 4.55229 17 4 17H1Z" fill="#9CA4AB"/>
</g>
</g>
</svg>
