<svg width="24" height="24" viewBox="0 0 24 24" fill="none" xmlns="http://www.w3.org/2000/svg">
<g id="soup">
<g id="shape">
<path d="M7.28446 3.70711C7.67498 3.31658 7.67498 2.68342 7.28446 2.29289C6.89393 1.90237 6.26077 1.90237 5.87024 2.29289C5.20273 2.96041 4.90434 3.7019 5.02648 4.49581C5.12352 5.12661 5.48523 5.66646 5.70883 6.00018L5.7453 6.0547C6.02691 6.47711 6.129 6.66221 6.15148 6.80831L6.15216 6.81182C6.15812 6.84026 6.18667 6.97647 5.87024 7.29289C5.47972 7.68342 5.47972 8.31658 5.87024 8.70711C6.26077 9.09763 6.89393 9.09763 7.28446 8.70711C7.95197 8.03959 8.25036 7.2981 8.12822 6.50419C8.03118 5.87339 7.66947 5.33354 7.44587 4.99982L7.4094 4.9453C7.12779 4.52289 7.0257 4.33779 7.00322 4.19169L7.00254 4.18818C6.99658 4.15974 6.96803 4.02353 7.28446 3.70711Z" fill="#9CA4AB"/>
<path fill-rule="evenodd" clip-rule="evenodd" d="M1 12C1 11.4477 1.44772 11 2 11H22C22.5523 11 23 11.4477 23 12C23 12.5523 22.5523 13 22 13H20.7467L18.7164 19.8523C18.3389 21.1261 17.1686 22 15.84 22H8.16002C6.83142 22 5.66106 21.1261 5.28362 19.8523L3.25332 13H2C1.44772 13 1 12.5523 1 12ZM5.33927 13H18.6607L16.7988 19.2841C16.673 19.7087 16.2828 20 15.84 20H8.16002C7.71715 20 7.32703 19.7087 7.20122 19.2841L5.33927 13Z" fill="#9CA4AB"/>
<path d="M12.2845 2.29289C12.675 2.68342 12.675 3.31658 12.2845 3.70711C11.968 4.02353 11.9966 4.15974 12.0025 4.18818L12.0032 4.19169C12.0257 4.33779 12.1278 4.52289 12.4094 4.9453L12.4459 4.99982C12.6695 5.33354 13.0312 5.87339 13.1282 6.50419C13.2504 7.2981 12.952 8.03959 12.2845 8.70711C11.8939 9.09763 11.2608 9.09763 10.8702 8.70711C10.4797 8.31658 10.4797 7.68342 10.8702 7.29289C11.1867 6.97647 11.1581 6.84026 11.1522 6.81182L11.1515 6.80831C11.129 6.66221 11.0269 6.47711 10.7453 6.0547L10.7088 6.00018C10.4852 5.66646 10.1235 5.12661 10.0265 4.49581C9.90434 3.7019 10.2027 2.96041 10.8702 2.29289C11.2608 1.90237 11.8939 1.90237 12.2845 2.29289Z" fill="#9CA4AB"/>
<path d="M17.2845 3.70711C17.675 3.31658 17.675 2.68342 17.2845 2.29289C16.8939 1.90237 16.2608 1.90237 15.8702 2.29289C15.2027 2.96041 14.9043 3.7019 15.0265 4.49581C15.1235 5.12661 15.4852 5.66646 15.7088 6.00018L15.7453 6.0547C16.0269 6.47711 16.129 6.66221 16.1515 6.80831L16.1522 6.81182C16.1581 6.84026 16.1867 6.97647 15.8702 7.29289C15.4797 7.68342 15.4797 8.31658 15.8702 8.70711C16.2608 9.09763 16.8939 9.09763 17.2845 8.70711C17.952 8.03959 18.2504 7.2981 18.1282 6.50419C18.0312 5.87339 17.6695 5.33354 17.4459 4.99982L17.4094 4.9453C17.1278 4.52289 17.0257 4.33779 17.0032 4.19169L17.0025 4.18818C16.9966 4.15974 16.968 4.02353 17.2845 3.70711Z" fill="#9CA4AB"/>
</g>
</g>
</svg>
