<svg width="25" height="24" viewBox="0 0 25 24" fill="none" xmlns="http://www.w3.org/2000/svg">
<g id="vuesax/linear/receipt-item">
<path id="Vector" d="M22.3335 6V8.42C22.3335 10 21.3335 11 19.7535 11H16.3335V4.01C16.3335 2.9 17.2435 2 18.3535 2C19.4435 2.01 20.4435 2.45 21.1635 3.17C21.8835 3.9 22.3335 4.9 22.3335 6Z" stroke="#66707A" stroke-width="2" stroke-miterlimit="10" stroke-linecap="round" stroke-linejoin="round"/>
<path id="Vector_2" d="M2.3335 7V21C2.3335 21.83 3.2735 22.3 3.9335 21.8L5.6435 20.52C6.0435 20.22 6.6035 20.26 6.9635 20.62L8.6235 22.29C9.0135 22.68 9.6535 22.68 10.0435 22.29L11.7235 20.61C12.0735 20.26 12.6335 20.22 13.0235 20.52L14.7335 21.8C15.3935 22.29 16.3335 21.82 16.3335 21V4C16.3335 2.9 17.2335 2 18.3335 2H7.3335H6.3335C3.3335 2 2.3335 3.79 2.3335 6V7Z" stroke="#66707A" stroke-width="2" stroke-miterlimit="10" stroke-linecap="round" stroke-linejoin="round"/>
<path id="Vector_3" d="M9.3335 13.0098H12.3335" stroke="#66707A" stroke-width="2" stroke-linecap="round" stroke-linejoin="round"/>
<path id="Vector_4" d="M9.3335 9.00977H12.3335" stroke="#66707A" stroke-width="2" stroke-linecap="round" stroke-linejoin="round"/>
<path id="Vector_5" d="M6.3291 13H6.33808" stroke="#66707A" stroke-width="2" stroke-linecap="round" stroke-linejoin="round"/>
<path id="Vector_6" d="M6.3291 9H6.33808" stroke="#66707A" stroke-width="2" stroke-linecap="round" stroke-linejoin="round"/>
</g>
</svg>
