<svg width="24" height="24" viewBox="0 0 24 24" fill="none" xmlns="http://www.w3.org/2000/svg">
<g id="home-1">
<path id="shape" fill-rule="evenodd" clip-rule="evenodd" d="M10.5858 3.99985C11.3668 3.2188 12.6332 3.2188 13.4142 3.99985L16.5 7.08564V5.99985C16.5 5.44756 16.9477 4.99985 17.5 4.99985C18.0523 4.99985 18.5 5.44756 18.5 5.99985V9.08564L20.7071 11.2927C21.0976 11.6833 21.0976 12.3164 20.7071 12.707C20.3166 13.0975 19.6834 13.0975 19.2929 12.707L19.2222 12.6363V17.9998C19.2222 19.6567 17.8791 20.9998 16.2222 20.9998H7.77778C6.12092 20.9998 4.77778 19.6567 4.77778 17.9998V12.6363L4.70711 12.707C4.31658 13.0975 3.68342 13.0975 3.29289 12.707C2.90237 12.3164 2.90237 11.6833 3.29289 11.2927L10.5858 3.99985ZM6.77778 10.6363V17.9998C6.77778 18.5521 7.22549 18.9998 7.77778 18.9998H11V14.9998C11 14.4476 11.4477 13.9998 12 13.9998C12.5523 13.9998 13 14.4476 13 14.9998V18.9998H16.2222C16.7745 18.9998 17.2222 18.5521 17.2222 17.9998V10.6363L12 5.41406L6.77778 10.6363Z" fill="white"/>
</g>
</svg>
