<svg width="51" height="41" viewBox="0 0 51 41" fill="none" xmlns="http://www.w3.org/2000/svg">
<path d="M46.75 0.666992H4.25C1.90365 0.666992 0 2.57064 0 4.91699V36.0837C0 38.43 1.90365 40.3337 4.25 40.3337H46.75C49.0964 40.3337 51 38.43 51 36.0837V4.91699C51 2.57064 49.0964 0.666992 46.75 0.666992ZM15.5833 9.16699C18.7089 9.16699 21.25 11.7081 21.25 14.8337C21.25 17.9592 18.7089 20.5003 15.5833 20.5003C12.4578 20.5003 9.91667 17.9592 9.91667 14.8337C9.91667 11.7081 12.4578 9.16699 15.5833 9.16699ZM25.5 30.1337C25.5 31.0722 24.6146 31.8337 23.5167 31.8337H7.65C6.55208 31.8337 5.66667 31.0722 5.66667 30.1337V28.4337C5.66667 25.618 8.33177 23.3337 11.6167 23.3337H12.0594C13.1484 23.7852 14.3349 24.042 15.5833 24.042C16.8318 24.042 18.0271 23.7852 19.1073 23.3337H19.55C22.8349 23.3337 25.5 25.618 25.5 28.4337V30.1337ZM45.3333 25.4587C45.3333 25.8482 45.0146 26.167 44.625 26.167H31.875C31.4854 26.167 31.1667 25.8482 31.1667 25.4587V24.042C31.1667 23.6524 31.4854 23.3337 31.875 23.3337H44.625C45.0146 23.3337 45.3333 23.6524 45.3333 24.042V25.4587ZM45.3333 19.792C45.3333 20.1816 45.0146 20.5003 44.625 20.5003H31.875C31.4854 20.5003 31.1667 20.1816 31.1667 19.792V18.3753C31.1667 17.9857 31.4854 17.667 31.875 17.667H44.625C45.0146 17.667 45.3333 17.9857 45.3333 18.3753V19.792ZM45.3333 14.1253C45.3333 14.5149 45.0146 14.8337 44.625 14.8337H31.875C31.4854 14.8337 31.1667 14.5149 31.1667 14.1253V12.7087C31.1667 12.3191 31.4854 12.0003 31.875 12.0003H44.625C45.0146 12.0003 45.3333 12.3191 45.3333 12.7087V14.1253Z" fill="#9CA4AB"/>
</svg>
