<svg width="70" height="28" viewBox="0 0 70 28" fill="none" xmlns="http://www.w3.org/2000/svg">
<path fill-rule="evenodd" clip-rule="evenodd" d="M9.34469 5.19506C10.6573 5.30162 11.97 4.55566 12.7904 3.6099C13.5971 2.63749 14.1304 1.33207 13.9936 0C12.8314 0.0532826 11.3957 0.745957 10.5753 1.71836C9.82326 2.55757 9.18061 3.91627 9.34469 5.19506ZM24.9598 22.352V1.58515H32.9587C37.0881 1.58515 39.9732 4.35585 39.9732 8.40532C39.9732 12.4548 37.0334 15.2521 32.8493 15.2521H28.2687V22.352H24.9598ZM13.9799 5.44813C12.8235 5.38329 11.7683 5.78693 10.916 6.11297C10.3675 6.32279 9.90305 6.50046 9.54969 6.50046C9.15316 6.50046 8.66953 6.31329 8.12652 6.10313C7.415 5.82776 6.60154 5.51294 5.74849 5.52805C3.79319 5.55469 1.97462 6.63367 0.976466 8.35203C-1.07455 11.7888 0.443202 16.8772 2.42585 19.6746C3.39666 21.0599 4.5589 22.5785 6.09032 22.5252C6.76405 22.5004 7.2487 22.3001 7.75026 22.0927C8.32769 21.854 8.92755 21.6061 9.86418 21.6061C10.7683 21.6061 11.342 21.8476 11.8926 22.0794C12.4162 22.2999 12.919 22.5115 13.6654 22.4986C15.2515 22.4719 16.2497 21.1132 17.2205 19.7279C18.2681 18.241 18.7285 16.7899 18.7984 16.5697C18.8024 16.5571 18.8051 16.5485 18.8066 16.5442C18.8049 16.5426 18.792 16.5368 18.7691 16.5266C18.4189 16.3704 15.7421 15.1766 15.7164 11.9752C15.6906 9.28817 17.8396 7.92673 18.1779 7.71242C18.1984 7.6994 18.2124 7.69058 18.2186 7.686C16.8513 5.71454 14.7182 5.50141 13.9799 5.44813ZM46.017 22.5119C48.0953 22.5119 50.0233 21.4862 50.8984 19.8611H50.9667V22.352H54.0296V12.0152C54.0296 9.01807 51.5684 7.08658 47.7808 7.08658C44.2668 7.08658 41.6688 9.04471 41.5731 11.7355H44.5539C44.8 10.4567 46.017 9.6175 47.6851 9.6175C49.7088 9.6175 50.8437 10.5366 50.8437 12.2283V13.3739L46.7143 13.6137C42.8721 13.8401 40.7937 15.372 40.7937 18.0361C40.7937 20.7269 42.9404 22.5119 46.017 22.5119ZM46.9055 20.0476C45.1416 20.0476 44.0204 19.2217 44.0204 17.9562C44.0204 16.6508 45.1006 15.8915 47.1653 15.7717L50.8435 15.5452V16.7174C50.8435 18.6622 49.148 20.0476 46.9055 20.0476ZM64.1888 23.1646C62.8625 26.8011 61.3447 28 58.1178 28C57.8717 28 57.0513 27.9734 56.8598 27.9201V25.4291C57.0649 25.4558 57.5709 25.4824 57.8307 25.4824C59.2937 25.4824 60.1141 24.883 60.62 23.3245L60.9209 22.4053L55.3148 7.2864H58.7741L62.671 19.5547H62.7394L66.6363 7.2864H70L64.1888 23.1646ZM28.2684 4.30257H32.0833C34.9547 4.30257 36.5955 5.79448 36.5955 8.41865C36.5955 11.0428 34.9547 12.548 32.0696 12.548H28.2684V4.30257Z" fill="black"/>
</svg>
