<svg width="59" height="47" viewBox="0 0 59 47" fill="none" xmlns="http://www.w3.org/2000/svg">
<path d="M0 41.5279C0 44.2423 2.20226 46.4445 4.91667 46.4445H54.0833C56.7977 46.4445 59 44.2423 59 41.5279V23.5001H0V41.5279ZM19.6667 34.5626C19.6667 33.8866 20.2198 33.3334 20.8958 33.3334H34.8264C35.5024 33.3334 36.0556 33.8866 36.0556 34.5626V38.6598C36.0556 39.3359 35.5024 39.889 34.8264 39.889H20.8958C20.2198 39.889 19.6667 39.3359 19.6667 38.6598V34.5626ZM6.55556 34.5626C6.55556 33.8866 7.10868 33.3334 7.78472 33.3334H15.1597C15.8358 33.3334 16.3889 33.8866 16.3889 34.5626V38.6598C16.3889 39.3359 15.8358 39.889 15.1597 39.889H7.78472C7.10868 39.889 6.55556 39.3359 6.55556 38.6598V34.5626ZM59 5.47233V10.389H0V5.47233C0 2.75792 2.20226 0.555664 4.91667 0.555664H54.0833C56.7977 0.555664 59 2.75792 59 5.47233Z" fill="#9CA4AB"/>
</svg>
