<svg width="69" height="28" viewBox="0 0 69 28" fill="none" xmlns="http://www.w3.org/2000/svg">
<path fill-rule="evenodd" clip-rule="evenodd" d="M31.8231 21.5243V13.449H36.1264C37.8898 13.449 39.3782 12.8767 40.5915 11.7481L40.8827 11.4619C43.0991 9.12518 42.9535 5.48492 40.5915 3.32302C39.4105 2.17849 37.7928 1.55853 36.1264 1.59032H29.2185V21.5243H31.8231ZM31.8234 11.0009V4.03831H36.1921C37.1306 4.03831 38.0205 4.38803 38.6839 5.02388C40.0916 6.35917 40.124 8.58466 38.7648 9.96764C38.1014 10.6512 37.163 11.0327 36.1921 11.0009H31.8234Z" fill="#3C4043"/>
<path fill-rule="evenodd" clip-rule="evenodd" d="M53.0324 8.95033C51.9161 7.94886 50.3954 7.44018 48.4702 7.44018C45.995 7.44018 44.1345 8.33038 42.905 10.0949L45.2023 11.5096C46.0435 10.3015 47.1922 9.69746 48.6482 9.69746C49.5703 9.69746 50.4601 10.0313 51.1557 10.6353C51.8352 11.2076 52.2235 12.0342 52.2235 12.9085V13.4967C51.2205 12.9562 49.9586 12.6701 48.4055 12.6701C46.5936 12.6701 45.1376 13.0834 44.0537 13.9259C42.9697 14.7684 42.4197 15.8811 42.4197 17.2959C42.3873 18.5835 42.9536 19.8075 43.9566 20.6341C44.9758 21.5243 46.27 21.9694 47.7907 21.9694C49.5865 21.9694 51.0101 21.1905 52.0941 19.6327H52.2073V21.5243H54.6987V13.1152C54.6987 11.3507 54.1487 9.9518 53.0324 8.95033ZM45.9631 19.0127C45.4292 18.6312 45.1055 18.0112 45.1055 17.3436C45.1055 16.5964 45.4615 15.9765 46.1573 15.4837C46.8692 14.9909 47.7591 14.7366 48.8109 14.7366C50.2671 14.7207 51.3997 15.0386 52.2088 15.6745C52.2088 16.7554 51.7719 17.6933 50.9143 18.4881C50.1377 19.2511 49.0859 19.6803 47.9857 19.6803C47.2576 19.6962 46.5456 19.4578 45.9631 19.0127Z" fill="#3C4043"/>
<path d="M60.2963 27.5172L69 7.88528H66.1689L62.1406 17.6774H62.092L57.9667 7.88528H55.1356L60.8463 20.65L57.6108 27.5172H60.2963Z" fill="#3C4043"/>
<path d="M22.8309 11.7004C22.8309 10.9215 22.7662 10.1425 22.6368 9.37951H11.652V13.7828H17.9452C17.6864 15.1976 16.8451 16.4693 15.6156 17.2641V20.1254H19.3689C21.5691 18.1384 22.8309 15.1976 22.8309 11.7004Z" fill="#4285F4"/>
<path d="M11.6525 22.8914C14.791 22.8914 17.4437 21.874 19.3689 20.1254L15.6156 17.2641C14.564 17.9635 13.2217 18.3609 11.6525 18.3609C8.61105 18.3609 6.03877 16.3421 5.11663 13.6397H1.25012V16.5964C3.22382 20.4593 7.25211 22.8914 11.6525 22.8914Z" fill="#34A853"/>
<path d="M5.11663 13.6397C4.63122 12.225 4.63165 10.6831 5.11707 9.25239V6.31157H1.24994C-0.416647 9.53852 -0.416647 13.3536 1.24994 16.5806L5.11663 13.6397Z" fill="#FBBC04"/>
<path d="M11.6525 4.53114C13.3188 4.49935 14.9204 5.11931 16.1176 6.24795L19.4502 2.9733C17.3309 1.03395 14.5483 -0.0311008 11.6525 0.000691824C7.25211 0.000691824 3.22364 2.44876 1.24994 6.31157L5.11663 9.26825C6.03877 6.54998 8.61105 4.53114 11.6525 4.53114Z" fill="#EA4335"/>
</svg>
