<svg width="68" height="54" viewBox="0 0 68 54" fill="none" xmlns="http://www.w3.org/2000/svg">
<path d="M57.009 45.2162C57.009 46.019 56.466 46.5974 55.6868 46.5974C54.884 46.5974 54.3646 45.9835 54.3646 45.2162C54.3646 44.4488 54.884 43.8349 55.6868 43.8349C56.466 43.8349 57.009 44.4488 57.009 45.2162ZM20.3174 43.8349C19.4792 43.8349 18.9951 44.4488 18.9951 45.2162C18.9951 45.9835 19.4792 46.5974 20.3174 46.5974C21.0847 46.5974 21.6042 46.019 21.6042 45.2162C21.5924 44.4488 21.0847 43.8349 20.3174 43.8349ZM34.1889 43.7995C33.5514 43.7995 33.1618 44.2127 33.0674 44.8266H35.3222C35.216 44.1537 34.8028 43.7995 34.1889 43.7995ZM46.9153 43.8349C46.1125 43.8349 45.6285 44.4488 45.6285 45.2162C45.6285 45.9835 46.1125 46.5974 46.9153 46.5974C47.7181 46.5974 48.2375 46.019 48.2375 45.2162C48.2375 44.4488 47.7181 43.8349 46.9153 43.8349ZM59.4174 46.9162C59.4174 46.9516 59.4528 46.9752 59.4528 47.046C59.4528 47.0815 59.4174 47.1051 59.4174 47.1759C59.3819 47.2113 59.3819 47.2349 59.3583 47.2704C59.3229 47.3058 59.2993 47.3294 59.2285 47.3294C59.1931 47.3648 59.1694 47.3648 59.0986 47.3648C59.0632 47.3648 59.0396 47.3648 58.9688 47.3294C58.9333 47.3294 58.9097 47.294 58.8743 47.2704C58.8389 47.2349 58.8153 47.2113 58.8153 47.1759C58.7799 47.1169 58.7799 47.0815 58.7799 47.046C58.7799 46.987 58.7799 46.9516 58.8153 46.9162C58.8153 46.8572 58.8507 46.8217 58.8743 46.7863C58.9097 46.7509 58.9333 46.7509 58.9688 46.7273C59.0278 46.6919 59.0632 46.6919 59.0986 46.6919C59.1576 46.6919 59.1931 46.6919 59.2285 46.7273C59.2875 46.7627 59.3229 46.7627 59.3583 46.7863C59.3937 46.8099 59.3819 46.8572 59.4174 46.9162ZM59.1576 47.0815C59.2167 47.0815 59.2167 47.046 59.2521 47.046C59.2875 47.0106 59.2875 46.987 59.2875 46.9516C59.2875 46.9162 59.2875 46.8926 59.2521 46.8572C59.2167 46.8572 59.1931 46.8217 59.1222 46.8217H58.9333V47.2349H59.0278V47.0697H59.0632L59.1931 47.2349H59.2875L59.1576 47.0815ZM68 6.34049V47.896C68 51.0245 65.4618 53.5627 62.3333 53.5627H5.66667C2.53819 53.5627 0 51.0245 0 47.896V6.34049C0 3.21202 2.53819 0.673828 5.66667 0.673828H62.3333C65.4618 0.673828 68 3.21202 68 6.34049ZM7.55556 22.821C7.55556 31.8523 14.8868 39.1717 23.9062 39.1717C27.1174 39.1717 30.2694 38.2037 32.9375 36.4447C24.3312 29.444 24.3903 16.2335 32.9375 9.23285C30.2694 7.46202 27.1174 6.50577 23.9062 6.50577C14.8868 6.49397 7.55556 13.8252 7.55556 22.821ZM34 35.6655C42.3229 29.1724 42.2875 16.5169 34 9.98841C25.7125 16.5169 25.6771 29.1842 34 35.6655ZM17.2007 44.6731C17.2007 43.646 16.5278 42.9731 15.4653 42.9377C14.9222 42.9377 14.3437 43.103 13.9542 43.7051C13.6708 43.221 13.1868 42.9377 12.5139 42.9377C12.0653 42.9377 11.6167 43.103 11.2625 43.5752V43.0558H10.2944V47.3884H11.2625C11.2625 45.1572 10.9674 43.8231 12.325 43.8231C13.5292 43.8231 13.2931 45.0273 13.2931 47.3884H14.2257C14.2257 45.228 13.9306 43.8231 15.2882 43.8231C16.4924 43.8231 16.2562 45.0037 16.2562 47.3884H17.2243V44.6731H17.2007ZM22.5014 43.0558H21.5687V43.5752C21.25 43.1856 20.8014 42.9377 20.1875 42.9377C18.9715 42.9377 18.0389 43.9058 18.0389 45.2162C18.0389 46.5384 18.9715 47.4947 20.1875 47.4947C20.8014 47.4947 21.25 47.2704 21.5687 46.8572V47.4002H22.5014V43.0558ZM27.2826 46.078C27.2826 44.3072 24.5792 45.1099 24.5792 44.2835C24.5792 43.6106 25.984 43.7169 26.7632 44.1537L27.1528 43.3863C26.0431 42.6662 23.5875 42.678 23.5875 44.3544C23.5875 46.0426 26.291 45.3342 26.291 46.1252C26.291 46.869 24.6972 46.8099 23.8472 46.2197L23.434 46.9634C24.7562 47.8606 27.2826 47.6717 27.2826 46.078ZM31.4618 47.1759L31.2021 46.3731C30.7535 46.621 29.7618 46.8926 29.7618 45.8891V43.9294H31.3083V43.0558H29.7618V41.7335H28.7937V43.0558H27.8965V43.9176H28.7937V45.8891C28.7937 47.9669 30.8361 47.5891 31.4618 47.1759ZM33.0319 45.594H36.2785C36.2785 43.6815 35.4049 42.9259 34.2243 42.9259C32.9729 42.9259 32.0757 43.8585 32.0757 45.2044C32.0757 47.6245 34.7437 48.0259 36.066 46.8808L35.6174 46.1724C34.6965 46.928 33.3035 46.8572 33.0319 45.594ZM40.009 43.0558C39.466 42.8197 38.6396 42.8433 38.2146 43.5752V43.0558H37.2465V47.3884H38.2146V44.9447C38.2146 43.5752 39.3361 43.7523 39.7257 43.953L40.009 43.0558ZM41.2604 45.2162C41.2604 43.8703 42.6299 43.4335 43.7042 44.2245L44.1528 43.4572C42.7833 42.3829 40.2924 42.9731 40.2924 45.228C40.2924 47.5655 42.9368 48.0377 44.1528 46.9988L43.7042 46.2315C42.6181 46.9988 41.2604 46.5384 41.2604 45.2162ZM49.1347 43.0558H48.1667V43.5752C47.1868 42.2766 44.6368 43.0085 44.6368 45.2162C44.6368 47.4828 47.2812 48.1322 48.1667 46.8572V47.4002H49.1347V43.0558ZM53.1132 43.0558C52.8299 42.9141 51.8146 42.7134 51.3187 43.5752V43.0558H50.3861V47.3884H51.3187V44.9447C51.3187 43.646 52.3812 43.7287 52.8299 43.953L53.1132 43.0558ZM57.8708 41.2967H56.9382V43.5752C55.9701 42.2884 53.4083 42.9731 53.4083 45.2162C53.4083 47.5065 56.0646 48.1204 56.9382 46.8572V47.4002H57.8708V41.2967ZM58.7681 32.4308V32.9738H58.8625V32.4308H59.0868V32.3363H58.5437V32.4308H58.7681ZM59.5472 47.046C59.5472 46.987 59.5472 46.9162 59.5118 46.8572C59.4764 46.8217 59.4528 46.7627 59.4174 46.7273C59.3819 46.6919 59.3229 46.6683 59.2875 46.6329C59.2285 46.6329 59.1576 46.5974 59.0986 46.5974C59.0632 46.5974 59.0042 46.6329 58.9333 46.6329C58.8743 46.6683 58.8389 46.6919 58.8035 46.7273C58.7444 46.7627 58.709 46.8217 58.709 46.8572C58.6736 46.9162 58.6736 46.987 58.6736 47.046C58.6736 47.0815 58.6736 47.1405 58.709 47.2113C58.709 47.2467 58.7444 47.3058 58.8035 47.3412C58.8389 47.3766 58.8625 47.4002 58.9333 47.4356C58.9924 47.471 59.0632 47.471 59.0986 47.471C59.1576 47.471 59.2285 47.471 59.2875 47.4356C59.3229 47.4002 59.3819 47.3766 59.4174 47.3412C59.4528 47.3058 59.4764 47.2467 59.5118 47.2113C59.5472 47.1405 59.5472 47.0815 59.5472 47.046ZM59.925 32.3245H59.7597L59.5708 32.7377L59.3819 32.3245H59.2167V32.962H59.3111V32.478L59.5 32.8912H59.6299L59.7951 32.478V32.962H59.925V32.3245ZM60.4444 22.821C60.4444 13.8252 53.1132 6.49397 44.0938 6.49397C40.8826 6.49397 37.7306 7.46202 35.0625 9.22105C43.5743 16.2217 43.7042 29.4676 35.0625 36.4329C37.7306 38.2037 40.9062 39.1599 44.0938 39.1599C53.1132 39.1717 60.4444 31.8523 60.4444 22.821Z" fill="#9CA4AB"/>
</svg>
