<svg width="74" height="24" viewBox="0 0 74 24" fill="none" xmlns="http://www.w3.org/2000/svg">
<path d="M53.7973 0.989105C52.6149 0.519026 50.7396 0 48.4207 0C42.5009 0 38.3322 3.16343 38.3067 7.68618C38.2575 11.023 41.2913 12.8764 43.5603 13.989C45.8795 15.126 46.6679 15.8681 46.6679 16.8815C46.6443 18.4379 44.7939 19.1553 43.068 19.1553C40.6747 19.1553 39.3923 18.7854 37.4436 17.9195L36.6542 17.5483L35.8153 22.7635C37.2213 23.4054 39.8116 23.975 42.5009 24C48.7908 24 52.8857 20.8855 52.9342 16.0658C52.9581 13.4211 51.3562 11.3946 47.9024 9.73863C45.8058 8.67561 44.5218 7.95883 44.5218 6.87117C44.5464 5.8824 45.6078 4.86964 47.9745 4.86964C49.9233 4.82004 51.3552 5.28946 52.4399 5.75921L52.9821 6.00591L53.7973 0.989105Z" fill="white"/>
<path d="M32.0666 23.6537H26.0721L29.8215 0.421132H35.8157L32.0666 23.6537Z" fill="white"/>
<path fill-rule="evenodd" clip-rule="evenodd" d="M69.1639 0.421132H64.5272C63.0973 0.421132 62.011 0.840951 61.3941 2.34875L52.49 23.6534H58.7799C58.7799 23.6534 59.8154 20.786 60.038 20.1684H67.7344C67.9065 20.9841 68.4497 23.6534 68.4497 23.6534H74L69.1639 0.421132ZM61.7645 15.4233C62.2582 14.0886 64.1578 8.92296 64.1578 8.92296C64.1478 8.94285 64.225 8.72823 64.3402 8.40821L64.3416 8.40429L64.3425 8.40172C64.5146 7.9237 64.7701 7.21418 64.9465 6.69871L65.3654 8.70057C65.3654 8.70057 66.5006 14.2617 66.7471 15.4233H61.7645Z" fill="white"/>
<path d="M21.0652 0.421132L15.1946 16.2636L14.5531 13.0505L14.5525 13.0485L12.4565 2.37405C12.1113 0.890226 11.0505 0.470078 9.74327 0.421132H0.0986681L0 0.890554C2.35228 1.49335 4.45618 2.36198 6.29963 3.44202L11.6426 23.6291H17.9816L27.4039 0.421132H21.0652Z" fill="white"/>
</svg>
