<svg width="10" height="10" viewBox="0 0 10 10" fill="none" xmlns="http://www.w3.org/2000/svg">
<g id="Star">
<path id="Star_2" d="M7.95944 6.16C7.82994 6.2855 7.77044 6.467 7.79994 6.645L8.24444 9.105C8.28194 9.3135 8.19394 9.5245 8.01944 9.645C7.84844 9.77 7.62094 9.785 7.43444 9.685L5.21994 8.53C5.14294 8.489 5.05744 8.467 4.96994 8.4645H4.83444C4.78744 8.4715 4.74144 8.4865 4.69944 8.5095L2.48444 9.67C2.37494 9.725 2.25094 9.7445 2.12944 9.725C1.83344 9.669 1.63594 9.387 1.68444 9.0895L2.12944 6.6295C2.15894 6.45 2.09944 6.2675 1.96994 6.14L0.164438 4.39C0.0134379 4.2435 -0.0390621 4.0235 0.0299379 3.825C0.0969379 3.627 0.267938 3.4825 0.474438 3.45L2.95944 3.0895C3.14844 3.07 3.31444 2.955 3.39944 2.785L4.49444 0.54C4.52044 0.49 4.55394 0.444 4.59444 0.405L4.63944 0.37C4.66294 0.344 4.68994 0.3225 4.71994 0.305L4.77444 0.285L4.85944 0.25H5.06994C5.25794 0.2695 5.42344 0.382 5.50994 0.55L6.61944 2.785C6.69944 2.9485 6.85494 3.062 7.03444 3.0895L9.51944 3.45C9.72944 3.48 9.90494 3.625 9.97444 3.825C10.0399 4.0255 9.98344 4.2455 9.82944 4.39L7.95944 6.16Z" fill="#FECC63"/>
</g>
</svg>
